<svg width="32" height="32" viewBox="0 0 32 32" fill="none" xmlns="http://www.w3.org/2000/svg">
<path d="M25.4998 5.94988C26.4498 3.04988 22.7998 1.44988 21.2998 3.04988C19.3498 -0.150121 15.1998 2.14988 15.1998 2.14988C15.1998 2.14988 12.9498 -0.350121 10.0498 1.94988C8.99978 0.899879 5.84978 0.649879 5.94978 5.74988C2.44978 6.04988 2.49978 10.9499 4.09978 11.6999L27.1998 13.6999C29.4498 12.7999 30.2998 6.79988 25.4998 5.94988Z" fill="#EDD8B4"/>
<path d="M10.9 2.39993C11.15 0.249931 6.99997 0.649931 7.64997 2.99993C6.09997 3.54993 7.19997 5.89993 8.44997 5.29993C8.49997 7.14993 11.6 6.69993 11.15 4.74993C12.3 5.24993 13.3 2.14993 10.9 2.39993Z" fill="#FFF8D6"/>
<path d="M10.35 3.0501C10.8 2.2501 9.29997 1.3501 9.19997 2.8001C8.29997 2.0501 7.14997 4.1501 8.74997 4.2001C7.99997 5.3501 9.94997 6.0501 10.3 4.9501C11.85 4.8001 11.4 2.8001 10.35 3.0501Z" fill="#EDD8B4"/>
<path d="M10.4002 3.85004C9.80022 3.70004 9.90022 3.65004 9.95022 3.20004C10.0502 2.35004 9.55022 2.35004 9.60022 3.15004C9.65022 3.65004 9.55022 3.85004 9.05022 3.45004C8.40022 3.00004 8.35022 3.50004 8.95022 3.70004C9.50022 3.95004 9.30022 3.80004 9.30022 4.50004C9.30022 5.05004 9.60022 5.20004 9.65022 4.50004C9.70022 3.80004 9.65022 3.85004 10.2002 4.20004C10.7502 4.50004 10.9502 4.00004 10.4002 3.85004Z" fill="#C9AE81"/>
<path d="M8.94996 7.90006C10.1 6.90006 7.29996 4.20006 6.24996 6.95006C4.04996 5.60006 2.99996 9.65006 5.14996 10.8001C6.19996 11.4001 12.25 11.0001 8.94996 7.90006Z" fill="#FFF8D6"/>
<path d="M6.64994 7.90009C6.04994 7.00009 4.24994 8.15009 5.69994 9.05009C2.54994 10.5001 11.3999 11.5501 8.64994 8.90009C9.34994 7.10009 6.99994 6.60009 6.64994 7.90009Z" fill="#EDD8B4"/>
<path d="M7.54981 8.25005C7.04981 8.80005 7.04981 8.70005 6.59981 8.45005C5.74981 7.90005 5.44981 8.75005 6.39981 9.15005C6.94981 9.35005 6.89981 9.45005 7.64981 9.85005C8.24981 10.1501 8.54981 9.85005 7.79981 9.45005C7.04981 9.05005 7.09981 9.15005 7.79981 8.70005C8.44981 8.15005 7.99981 7.70005 7.54981 8.25005Z" fill="#C9AE81"/>
<path d="M27.7998 9.30004C28.8498 8.40004 26.3498 6.00004 25.3998 8.45004C23.4498 7.25004 21.7498 11.45 24.3998 11.9C24.1998 13.7 26.9998 13.7 26.9998 12.2C28.7998 13.05 29.9498 9.80004 27.7998 9.30004Z" fill="#FFF8D6"/>
<path d="M25.7498 9.30012C25.1998 8.50012 23.5498 9.50012 24.8998 10.3001C23.6998 10.8501 25.1998 12.9001 26.0498 11.3501C26.8498 12.6001 28.4498 11.0001 27.5998 10.1501C28.1498 8.60012 26.0498 8.15012 25.7498 9.30012Z" fill="#EDD8B4"/>
<path d="M26.5502 9.60012C26.1002 10.1001 26.1002 10.0001 25.7002 9.75012C24.9502 9.25012 24.6502 9.70012 25.5002 10.0501C26.0002 10.2501 26.1502 10.4001 25.5002 10.7501C24.7502 11.1501 25.2502 11.4501 25.7002 11.0001C26.2002 10.5001 25.9502 10.6501 26.6002 11.0001C27.1502 11.2501 27.4002 11.0001 26.7502 10.6501C26.1002 10.3001 26.1002 10.3501 26.7502 9.95012C27.3502 9.55012 26.9502 9.10012 26.5502 9.60012Z" fill="#C9AE81"/>
<path d="M17.9002 3.49998C19.0002 2.54998 16.3502 0.049979 15.4002 2.59998C13.3502 1.34998 11.6002 5.69998 14.3502 6.19998C14.1502 8.04998 17.0502 8.09998 17.1002 6.49998C18.9502 7.39998 20.1002 3.99998 17.9002 3.49998Z" fill="#FFF8D6"/>
<path d="M15.75 3.5C15.2 2.65 13.5 3.7 14.85 4.55C13.6 5.1 15.15 7.25 16.05 5.65C16.85 6.95 18.55 5.3 17.65 4.4C18.3 2.75 16.05 2.3 15.75 3.5Z" fill="#EDD8B4"/>
<path d="M16.5499 3.80006C16.0499 4.35006 16.0999 4.25006 15.6499 4.00006C14.8499 3.50006 14.5499 3.95006 15.4499 4.30006C15.9499 4.50006 16.0999 4.70006 15.4999 5.00006C14.6999 5.45006 15.1999 5.75006 15.6999 5.25006C16.1999 4.75006 15.9499 4.90006 16.6499 5.25006C17.1999 5.55006 17.4999 5.25006 16.7999 4.90006C16.0999 4.50006 16.1499 4.60006 16.7999 4.20006C17.3999 3.75006 16.9999 3.35006 16.5499 3.80006Z" fill="#C9AE81"/>
<path d="M13.8001 8.05012C14.1001 6.60012 10.3001 6.05012 11.1501 8.85012C8.65015 9.05012 9.70015 12.5501 12.6001 12.5501C16.7001 12.5001 15.9501 7.10012 13.8001 8.05012Z" fill="#FFF8D6"/>
<path d="M11.6 9.4C10.8 13.35 16.55 11.9 14.15 9C13.65 7.2 11.9 8.1 11.6 9.4Z" fill="#EDD8B4"/>
<path d="M12.8501 9.09996C12.8001 9.84996 12.2501 9.49996 11.8501 9.84996C10.7001 10.85 13.8001 11.8 14.3001 9.99996C14.4001 9.54996 13.0001 10.05 13.2501 9.29996C13.5501 8.54996 12.9501 8.44996 12.8501 9.09996Z" fill="#C9AE81"/>
<path d="M22.6502 4.64992C22.9502 3.19992 19.2002 2.69992 20.0502 5.44992C17.6002 5.64992 18.9002 10.2999 21.4502 9.04992C22.4502 10.6999 24.8502 8.99992 23.9002 7.69992C25.9502 7.24992 24.8002 3.74992 22.6502 4.64992Z" fill="#FFF8D6"/>
<path d="M20.8998 5.9501C19.8998 5.6001 19.1998 7.5001 20.8498 7.3501C20.1998 8.5501 22.7998 9.4001 22.4998 7.5501C23.9998 8.1501 24.3498 5.7501 23.0498 5.6001C22.4998 3.8001 20.3998 4.7501 20.8998 5.9501Z" fill="#EDD8B4"/>
<path d="M21.8002 5.69998C21.7502 6.44998 21.7002 6.34998 21.2002 6.34998C20.2502 6.39998 20.3002 6.94998 21.2002 6.74998C21.7502 6.59998 22.0002 6.64998 21.6502 7.34998C21.2502 8.19998 21.9002 8.14998 22.0002 7.39998C22.1002 6.64998 22.0002 6.94998 22.7502 6.84998C23.4002 6.74998 23.4502 6.34998 22.6502 6.44998C21.8502 6.54998 21.9502 6.59998 22.2002 5.84998C22.4502 5.14998 21.8502 5.04998 21.8002 5.69998Z" fill="#C9AE81"/>
<path d="M3.89988 11.2001L7.84988 31.0001H11.0999L8.44988 11.2001C8.24988 8.4001 3.49988 8.4001 3.89988 11.2001Z" fill="#ED4C5C"/>
<path d="M8.44999 11.2001L11.1 31.0001H14.35L13 11.2001C13 8.4001 8.24999 8.4001 8.44999 11.2001Z" fill="#F9F9F9"/>
<path d="M13 11.2001L14.35 31.0001H17.6V11.2001C17.75 8.4001 13 8.4001 13 11.2001Z" fill="#ED4C5C"/>
<path d="M17.6001 11.2001V31.0001H20.8001L22.1501 11.2001C22.4501 8.4001 17.7501 8.4001 17.6001 11.2001Z" fill="#F9F9F9"/>
<path d="M20.7998 30.9999L22.8498 29.5999L23.7998 11.8499C24.0998 9.69989 22.2998 8.89988 22.0998 11.1999L20.7998 30.9999Z" fill="#C94747"/>
<path d="M24.5999 28.3999L25.5499 12.4999C25.8999 10.4999 24.1499 9.69991 23.8499 11.8499L22.8999 29.5999L24.5999 28.3999Z" fill="#E8E8E8"/>
<path d="M26.0501 27.4499L27.2001 13.1999C27.6001 11.3499 25.9001 10.5499 25.5501 12.5499L24.6001 28.4499L26.0501 27.4499Z" fill="#C94747"/>
<path d="M26.9998 26.8001L28.1498 13.8001C28.2498 12.3501 27.3498 11.8501 27.1998 13.2001L26.0498 27.4501L26.9998 26.8001Z" fill="#E8E8E8"/>
</svg>
